<svg width="146" height="95" viewBox="0 0 146 95" fill="none" xmlns="http://www.w3.org/2000/svg">
<path d="M108.655 23.2346C88.7443 23.2346 72.6157 39.0443 72.6157 58.5177C72.6157 77.991 88.7443 93.8007 108.655 93.8007C128.565 93.8007 144.694 77.991 144.694 58.5177C144.694 39.0443 128.565 23.2346 108.655 23.2346Z" fill="#4ABC96" stroke="white"/>
<path d="M102.469 69.0752L104.664 70.0992L108.949 62.7003L101.836 62.7291L102.469 69.0752Z" fill="#3A3A3A"/>
<path d="M104.125 70.4521C103.158 66.8632 104.536 63.3953 107.202 62.7064C109.868 62.0176 112.813 64.3686 113.78 67.9576C114.747 71.5466 113.369 75.0144 110.703 75.7033C108.037 76.3921 105.092 74.0411 104.125 70.4521Z" fill="#E5E5E5"/>
<path d="M105.711 69.9697C105.12 67.7747 105.966 65.6526 107.602 65.23C109.238 64.8073 111.044 66.2441 111.635 68.4391C112.226 70.6342 111.38 72.7562 109.744 73.1789C108.108 73.6015 106.302 72.1647 105.711 69.9697Z" fill="#B2B1B1"/>
<path d="M106.403 69.8635C105.895 67.9765 106.624 66.152 108.032 65.7882C109.44 65.4245 110.993 66.6593 111.501 68.5463C112.01 70.4332 111.281 72.2578 109.873 72.6215C108.465 72.9852 106.912 71.7504 106.403 69.8635Z" fill="#EA4949"/>
<path d="M107.589 69.484C107.371 68.6753 107.679 67.8946 108.277 67.7401C108.875 67.5857 109.536 68.1161 109.754 68.9248C109.972 69.7335 109.664 70.5142 109.066 70.6687C108.468 70.8231 107.807 70.2927 107.589 69.484Z" fill="#4F4B4B"/>
<path d="M82.2292 61.3431C81.8288 59.8566 82.4031 58.4193 83.512 58.1328C84.6209 57.8463 85.8445 58.8191 86.2449 60.3055C86.6454 61.792 86.0711 63.2292 84.9622 63.5157C83.8533 63.8023 82.6297 62.8295 82.2292 61.3431Z" fill="#E5E5E5"/>
<path d="M82.897 61.1427C82.6522 60.2339 83.002 59.3554 83.6784 59.1807C84.3547 59.0059 85.1015 59.601 85.3463 60.5098C85.5912 61.4187 85.2414 62.2971 84.565 62.4718C83.8887 62.6466 83.1419 62.0515 82.897 61.1427Z" fill="#B2B1B1"/>
<path d="M83.1833 61.0951C82.9717 60.3095 83.2719 59.5508 83.8539 59.4004C84.4358 59.25 85.0792 59.765 85.2908 60.5506C85.5025 61.3362 85.2023 62.0949 84.6203 62.2453C84.0383 62.3956 83.395 61.8807 83.1833 61.0951Z" fill="#EA4949"/>
<path d="M83.6631 60.9425C83.5738 60.6114 83.7055 60.2902 83.9572 60.2251C84.2089 60.1601 84.4852 60.3759 84.5744 60.7071C84.6636 61.0382 84.532 61.3594 84.2803 61.4245C84.0286 61.4895 83.7523 61.2737 83.6631 60.9425Z" fill="#4F4B4B"/>
<path d="M137.55 62.0945L138.979 63.4358C138.979 63.4358 139.509 63.9983 138.61 64.9358C138.61 64.9358 130.378 70.4597 119.303 73.2578C119.303 73.2578 115.606 74.4404 112.764 73.2001C112.764 73.2001 111.924 72.7386 112.071 71.4405C112.219 70.1424 112.911 70.2578 112.911 70.2578L137.55 62.0945Z" fill="#EFEEED"/>
<path d="M82.749 52.013C82.749 52.013 89.0819 49.6332 95.724 49.6332L115.562 50.8736L98.7873 55.5321L82.749 52.013Z" fill="#EA4949"/>
<path d="M87.506 52.6332C87.506 52.6332 93.8388 50.2534 100.481 50.2534L118.095 52.013L103.53 56.1523L87.506 52.6332Z" fill="#CE3232"/>
<path d="M116.092 51.0322C116.092 51.0322 100.319 54.2341 97.8889 54.0754C97.8889 54.0754 94.1481 53.7149 93.0877 53.5129L79.2144 51.1909L77.7858 51.263L118.669 67.5608L136.814 60.6955C136.814 60.6955 137.609 59.8157 137.506 58.9359C137.506 58.9359 133.971 53.8302 116.092 51.0322Z" fill="#F47171"/>
<path d="M118.979 64.5176L119.406 60.5369L77.7858 51.263L78.5811 57.7677L82.1452 59.7148C82.8374 58.8782 84.2218 59.1955 84.2218 59.1955C85.7976 59.8734 86.3278 62.4118 86.3278 62.4118L102.469 69.0752C102.16 62.8734 105.798 63.032 105.798 63.032C111.173 63.4935 113.397 70.4742 113.397 70.4742L115.768 70.9357L120.201 69.9405L118.979 64.5176Z" fill="#EA4949"/>
<path d="M137.079 62.2964L136.814 60.6955L119.524 67.2002L120.186 69.9405C120.186 69.9405 123.839 69.4069 129.362 67.1714C134.884 64.9358 137.079 62.2964 137.079 62.2964Z" fill="#EA4949"/>
<path d="M116.092 51.0322L139.509 54.9119C139.509 54.9119 139.656 57.5081 138.846 58.4888C138.213 59.2532 137.403 59.6282 136.519 59.383C136.519 59.383 132.44 54.4216 124.384 52.9072L116.092 51.0322Z" fill="#D33C3C"/>
<path d="M135.954 56.7973C136.055 55.9266 136.798 55.2938 137.614 55.384C138.43 55.4741 139.011 56.2529 138.911 57.1236C138.81 57.9943 138.067 58.6271 137.251 58.537C136.435 58.4469 135.854 57.668 135.954 56.7973Z" fill="#FFFDF6"/>
<path d="M116.092 51.0322L139.509 54.9119C139.509 54.9119 137.771 55.1283 136.828 56.4552C136.107 57.4648 136.519 59.383 136.519 59.383C136.519 59.383 132.44 54.4216 124.384 52.9072L116.092 51.0322Z" fill="#EA4949"/>
<path d="M94.1187 55.0129L119.612 60.6522C119.612 60.6522 120.231 63.5945 118.964 64.705C118.139 65.4262 117.314 65.8589 116.357 65.5416C116.357 65.5416 112.219 59.8446 103.485 57.6667L94.1187 55.0129Z" fill="#D33C3C"/>
<path d="M115.91 62.657C116.078 61.7073 116.936 61.0597 117.825 61.2106C118.715 61.3614 119.3 62.2535 119.132 63.2032C118.964 64.1529 118.107 64.8004 117.217 64.6496C116.328 64.4987 115.743 63.6066 115.91 62.657Z" fill="#FFFDF6"/>
<path d="M94.1187 55.0129L119.612 60.6522C119.612 60.6522 117.904 60.9118 116.784 62.3109C115.93 63.3781 116.357 65.5416 116.357 65.5416C116.357 65.5416 112.219 59.8446 103.485 57.6667L94.1187 55.0129Z" fill="#EA4949"/>
<path d="M136.342 63.032C136.342 63.032 136.976 60.4792 135.238 60.5801C135.238 60.5801 132.175 61.3589 128.743 62.5993C125.312 63.8397 119.818 65.4118 119.524 67.2002C119.524 67.2002 119.509 69.0463 120.628 69.8684C120.643 69.8828 133.5 67.7915 136.342 63.032Z" fill="#E5E5E5"/>
<path d="M135.12 63.2483C135.12 63.2483 135.739 61.633 134.31 61.7339C134.31 61.7339 131.806 62.3974 128.993 63.4358C126.18 64.4743 121.674 65.8156 121.468 67.2723C121.468 67.2723 121.217 68.5992 122.16 69.2627C122.16 69.2771 132.837 67.1569 135.12 63.2483Z" fill="#CCCAC8"/>
<path d="M116.092 51.0322L111.924 46.4746C111.733 46.316 111.585 46.2006 111.497 46.1717C110.834 45.9698 98.3896 47.0371 97.0052 47.5996C95.9007 48.0467 95.3705 48.0179 94.5899 50.1524L93.6621 53.6427L97.3293 54.0754C97.3293 54.0754 99.3911 54.2485 103.073 53.5274C106.755 52.8062 116.092 51.0322 116.092 51.0322Z" fill="#EA4949"/>
<path d="M116.092 51.0322C116.092 51.0322 106.755 52.8062 103.088 53.5274C99.4058 54.2485 97.344 54.0754 97.344 54.0754L94.3543 53.7149L95.2232 50.4553C95.9743 48.3928 96.4751 48.4217 97.5502 48.0034C98.8609 47.4698 111.011 46.3304 111.954 46.489C113.176 47.5852 116.092 51.0322 116.092 51.0322Z" fill="#D8E7EA"/>
<path d="M116.092 51.0322C116.092 51.0322 106.755 52.8062 103.088 53.5274C101.586 53.8158 100.348 53.9745 99.4206 54.0322C99.4206 54.0322 96.1363 48.7534 96.2689 48.6236C96.6076 48.2919 97.02 48.2198 97.5502 48.0034C98.8609 47.4698 111.011 46.3304 111.954 46.489C113.176 47.5852 116.092 51.0322 116.092 51.0322Z" fill="#EDEFEF"/>
<g filter="url(#filter0_f)">
<path d="M72.383 56.3795C65.9623 48.4781 15.8991 62.6069 3.53007 50.2225C-8.75435 37.9227 52.9238 33.0682 45.0337 15.9349" stroke="#4ABC96" stroke-width="2" stroke-dasharray="8 2"/>
</g>
<path d="M50.8395 6.0402C50.8395 3.08302 48.2402 0.685516 45.0332 0.685516C41.8267 0.685516 39.2274 3.08302 39.2274 6.0402C39.2274 7.53606 39.9372 9.23496 40.967 10.5571L45.0337 15.9349L49.1013 10.5562C50.3274 8.93948 50.8395 7.53513 50.8395 6.0402Z" fill="#0CC18E"/>
<path d="M45.0332 0.685516C41.8267 0.685516 39.2274 3.08302 39.2274 6.0402L45.0332 0.685516Z" fill="#17DD9F"/>
<path d="M45.0337 15.9349L49.1013 10.5562C50.3271 8.93948 50.8394 7.5351 50.8394 6.0402C50.8395 3.08302 48.2402 0.685516 45.0332 0.685516" fill="#039176"/>
<path d="M50.8395 6.0402C50.8395 3.08302 48.2402 0.685516 45.0332 0.685516L50.8395 6.0402Z" fill="#047F73"/>
<path d="M45.0334 8.14177C46.4747 8.14177 47.6431 7.06433 47.6431 5.73522C47.6431 4.40612 46.4747 3.32867 45.0334 3.32867C43.5922 3.32867 42.4238 4.40612 42.4238 5.73522C42.4238 7.06433 43.5922 8.14177 45.0334 8.14177Z" fill="#F44D71"/>
<path d="M42.4246 5.73522C42.4246 4.40637 43.5924 3.32867 45.0331 3.32867L42.4246 5.73522Z" fill="#FF6679"/>
<path d="M45.0332 3.32892C46.4739 3.32892 47.6428 4.40637 47.6428 5.73547C47.6428 7.06408 46.4742 8.14105 45.0332 8.14105" fill="#D60949"/>
<path d="M47.6425 5.73523C47.6425 7.06384 46.4739 8.14081 45.0329 8.14081L47.6425 5.73523Z" fill="#B50444"/>
<defs>
<filter id="filter0_f" x="0.772081" y="15.3834" width="72.5203" height="41.76" filterUnits="userSpaceOnUse" color-interpolation-filters="sRGB">
<feFlood flood-opacity="0" result="BackgroundImageFix"/>
<feBlend mode="normal" in="SourceGraphic" in2="BackgroundImageFix" result="shape"/>
<feGaussianBlur stdDeviation="0.0666342" result="effect1_foregroundBlur"/>
</filter>
</defs>
</svg>
