<svg width="66" height="160" viewBox="0 0 66 160" fill="none" xmlns="http://www.w3.org/2000/svg">
<g filter="url(#filter0_d)">
<mask id="path-1-outside-1" maskUnits="userSpaceOnUse" x="1.99115" y="-0.00907776" width="61.3836" height="152.541" fill="black">
<rect fill="white" x="1.99115" y="-0.00907776" width="61.3836" height="152.541"/>
<path d="M43.7832 150.602C42.3102 149.244 41.4041 145.199 41.7277 141.424C42.089 137.209 41.5365 134.148 39.285 127.892C35.8157 118.254 35.0651 113.449 35.7818 105.468C36.2845 99.8683 35.8889 96.6832 33.8861 90.2055C32.1456 84.5762 31.8061 82.4305 31.9995 78.2842C32.2492 72.9349 33.5044 70.5885 38.7978 65.5763C39.809 64.6188 41.1439 63.3515 41.7642 62.7602C44.0564 60.575 44.7589 59.1095 44.9587 56.0954C45.1793 52.7687 44.6729 50.1019 43.3653 47.7038C42.8381 46.737 42.4107 45.5209 42.4154 45.0012C42.4299 43.4169 43.2169 44.169 43.9273 46.4459C44.2895 47.6068 44.8984 48.8571 45.2806 49.2244C46.2658 50.1712 48.2044 50.8285 49.2545 50.5717C50.6813 50.2228 52.431 48.472 52.8107 47.0132C53.1059 45.8792 53.0341 45.4604 52.2871 43.9577C51.3816 42.1362 49.5247 40.244 49.056 40.6652C48.9058 40.8002 48.8777 40.7455 48.9933 40.5436C49.1111 40.3381 48.55 39.8475 47.7183 39.4287L46.2328 38.6808L44.515 39.8289C42.2652 41.3326 39.551 41.944 37.7004 41.3639C34.884 40.481 29.5303 34.3554 25.8665 27.8233C25.3857 26.9662 24.722 25.9525 24.3915 25.5707C23.2932 24.3016 19.7959 19.7511 17.2567 16.2871C14.604 12.6682 7.45569 5.82797 6.76762 6.25004C6.54804 6.38473 6.50092 6.31443 6.65009 6.07481C6.79051 5.84933 6.45487 5.09554 5.88114 4.34783C4.715 2.82807 4.07466 1.30543 4.49358 1.04846C4.95724 0.764054 6.78708 1.86263 7.68604 2.96509C8.44856 3.90023 10.1607 4.88957 10.4751 4.57677C10.6954 4.35775 10.2105 3.31418 9.88712 3.31123C9.72068 3.30971 9.58804 2.92233 9.59235 2.45037C9.60368 1.20726 10.3851 1.39237 11.4763 2.89664C11.9932 3.60935 12.8432 4.65322 13.3651 5.21637C13.887 5.77952 14.4675 6.83976 14.6552 7.57246C15.1792 9.61889 19.0647 13.3398 22.4899 15.0754C26.5986 17.1572 27.7298 17.569 29.9886 17.8047C32.3479 18.051 33.6852 17.6951 39.2971 15.3278C44.1959 13.2612 47.4215 12.1727 48.7296 12.1447C50.2829 12.1115 51.8701 13.8163 53.6537 17.4336C55.7459 21.6768 58.3046 29.1046 59.1129 33.2813C59.4972 35.2672 60.0835 37.9758 60.4159 39.3004C62.8052 48.8236 62.5152 53.3458 58.8262 64.0843C57.6814 67.4166 56.9768 70.1259 56.7547 72.0492C56.3835 75.2646 55.8104 78.0237 54.4419 83.1843C52.9058 88.9772 50.4001 97.7093 49.0877 101.844C47.9791 105.336 47.8454 106.132 47.9026 108.9C47.9783 112.562 47.5005 115.899 46.0919 121.546C44.7087 127.09 44.6942 129.775 46.0277 133.376C47.3206 136.868 47.6528 139.15 47.6066 144.224C47.5701 148.236 47.1831 150.68 46.5199 151.086C45.6244 151.636 44.7335 151.478 43.7831 150.602L43.7832 150.602ZM46.2351 149.625C46.4331 149.112 46.7436 147.146 46.9253 145.255C47.3248 141.096 46.9579 137.576 45.7868 134.329C44.3494 130.345 44.019 128.571 43.7232 123.249C43.5657 120.416 43.2257 116.545 42.9677 114.647C42.604 111.972 42.55 108.538 42.7274 99.3694C42.9255 89.133 43.0535 87.0812 43.6793 84.116C44.5612 79.9364 46.24 75.3591 48.626 70.6279C52.2899 63.363 53.8362 57.9836 53.8355 52.5045C53.8352 50.4955 53.7281 48.4647 53.5975 47.9916L53.36 47.1312L53.0841 47.9869C52.162 50.8455 48.6249 52.2171 46.1681 50.6687C45.5613 50.2862 45.0182 49.9729 44.9613 49.9724C44.9043 49.9719 45.0642 51.016 45.3166 52.2927C46.3504 57.5229 45.1965 60.4021 40.2384 64.9634C33.7414 70.9405 32.4859 73.4227 32.6855 79.8965C32.7955 83.462 32.9203 84.0302 34.9155 90.0433L37.029 96.413L36.8609 105.334C36.641 117.009 37.0888 119.69 41.0977 130.702C41.5654 131.987 42.0384 133.883 42.1487 134.917C42.2821 136.165 42.5042 136.797 42.811 136.8C43.1237 136.803 43.2686 137.247 43.2601 138.177C43.2533 138.932 43.1164 139.549 42.956 139.547C42.4614 139.543 42.2037 142.951 42.5576 144.816C43.1693 148.039 43.8252 149.744 44.6032 150.133C45.7095 150.687 45.8414 150.646 46.2351 149.625L46.2351 149.625ZM46.1349 118.98C46.6054 117.166 46.9805 114.407 47.1301 111.66L47.3702 107.25L46.4802 108.135C45.2086 109.4 43.9641 109.301 43.3343 107.884C42.8629 106.824 42.8455 106.939 43.0097 110.01C43.1051 111.795 43.3886 114.955 43.6398 117.031C43.8909 119.107 44.0856 121.987 44.0724 123.431C44.0593 124.874 44.1567 126.167 44.2891 126.304C44.4215 126.44 44.721 125.503 44.9548 124.221C45.1886 122.94 45.7196 120.581 46.1349 118.98V118.98ZM45.4151 108.413C46.076 107.957 46.9381 106.486 46.9443 105.803C46.952 104.957 45.681 103.529 44.9142 103.522C43.5575 103.51 43.0767 105.542 43.9215 107.718C44.2902 108.668 44.7414 108.878 45.4151 108.413V108.413ZM49.836 97.7312C54.2293 82.6008 55.6504 76.7306 56.0547 72.0428C56.383 68.2379 56.4291 68.0508 58.164 63.4803C60.1782 58.1738 61.087 53.8505 61.1528 49.2619C61.2039 45.6936 61.0682 44.5456 60.1377 40.6709C59.547 38.2112 58.8463 34.9874 58.5806 33.507C58.3149 32.0267 57.4187 28.7746 56.5891 26.2802C53.9931 18.4752 50.6988 12.6084 48.9031 12.592C48.011 12.5839 45.6425 13.4072 38.9286 16.0594C33.8046 18.0834 33.0723 18.2832 30.8515 18.263C28.665 18.2431 27.0774 17.8555 24.2892 16.661C22.9764 16.0986 23.7818 17.7357 25.5602 19.2445C29.1883 22.3227 30.2771 22.3723 39.6888 19.8883C43.4918 18.8846 47.0651 18.0676 47.6296 18.0727C49.5806 18.0905 50.1567 19.4147 52.053 28.2395C53.5004 34.9755 54.0704 39.6631 53.9265 43.6462C53.8708 45.1877 54.01 47.8188 54.2358 49.4931C54.7478 53.2891 54.2722 57.4112 52.8057 61.8867C52.101 64.0375 51.8988 65.0973 52.1358 65.3991C52.4734 65.8291 51.8093 67.0772 51.4437 66.7C51.1896 66.4379 47.0796 74.6077 46.0278 77.4656C44.0506 82.8379 43.6526 85.4713 43.4018 94.8406C43.2742 99.6066 43.2633 103.507 43.3777 103.508C43.4921 103.509 43.8921 103.32 44.2668 103.088C44.8228 102.743 45.1175 102.763 45.8709 103.196C46.3785 103.488 46.9394 104.068 47.1175 104.485C47.5611 105.523 47.6059 105.412 49.8361 97.7312L49.836 97.7312ZM52.8483 35.1717C52.0091 29.875 50.5788 23.398 49.721 21.0096C48.9078 18.7456 48.3458 18.4093 46.0196 18.7948C43.1904 19.2637 43.0051 19.3896 44.3038 19.9609C44.9347 20.2384 45.8079 20.8629 46.2443 21.3486C47.2274 22.4429 48.3652 24.7102 48.3435 25.5317C48.334 25.8695 47.9738 25.3977 47.5417 24.4832C46.1386 21.5135 44.3731 20.0967 42.0664 20.0892C40.0989 20.0828 36.235 22.0215 36.6918 22.7859C36.7774 22.9289 36.6044 23.0225 36.3077 22.9939C35.5123 22.9173 34.4637 25.0909 34.4477 26.8496C34.4315 28.6169 35.5303 31.2287 36.413 31.5214C36.7459 31.6318 37.2861 32.339 37.6136 33.0929C37.941 33.8469 38.4356 34.4658 38.7126 34.4683C38.9896 34.4708 39.8833 35.1072 40.6985 35.8824C41.5137 36.6576 42.3643 37.2341 42.5886 37.1635C43.3636 36.9196 44.8553 33.7464 44.6667 32.743C44.457 31.6277 44.8025 30.0614 45.2573 30.0655C45.9019 30.0714 46.2804 31.3691 45.9143 32.318C45.6032 33.1244 45.7014 33.3933 46.7408 34.5803C48.0918 36.1231 48.0878 36.1054 47.386 37.4386C46.8648 38.4287 47.0934 38.986 48.031 39.0105C48.7779 39.0301 52.0191 41.9602 52.5317 43.0794L53.0967 44.3131L53.2223 41.3192C53.2913 39.6726 53.123 36.9062 52.8482 35.1717L52.8483 35.1717ZM43.4552 39.8125C44.4052 39.3 45.1836 38.7508 45.185 38.592C45.1877 38.2913 44.8891 38.246 42.2238 38.1429C40.2966 38.0684 36.7354 35.9783 30.745 31.4059C28.6528 29.8089 27.0928 28.7961 27.2784 29.1552C28.8461 32.189 34.7874 39.2493 36.6676 40.3127C38.3494 41.2639 41.1469 41.0577 43.4552 39.8125V39.8125ZM41.4844 37.3076C41.03 36.9829 40.2094 36.2957 39.6611 35.7803C39.1128 35.265 38.5425 34.918 38.394 35.0091C38.2454 35.1002 37.7622 34.5865 37.3203 33.8676C36.8784 33.1486 36.1734 32.2482 35.7536 31.8668C34.0531 30.3218 33.2866 26.8395 34.1496 24.5801C34.352 24.0504 35.0857 23.0203 35.7802 22.2909C36.4748 21.5615 36.8532 21.0709 36.6213 21.2007C35.9001 21.6042 32.4694 22.397 31.4833 22.388C29.687 22.3716 26.9525 21.2737 25.7297 20.0779C24.2658 18.6463 23.9352 18.5928 24.2159 19.833C25.1698 24.0484 25.719 26.0041 26.1317 26.6551C27.1709 28.2942 36.9489 35.5233 40.199 37.0554C42.3011 38.0464 42.6011 38.1052 41.4844 37.3076V37.3076ZM46.7388 37.1401C47.2401 36.3805 47.2403 36.2391 46.7414 35.4526C45.8439 34.037 45.3438 34.0929 44.3849 35.7158C43.3373 37.4891 43.3348 37.5058 44.0913 37.7134C45.4842 38.0958 46.2119 37.9381 46.7385 37.1401L46.7388 37.1401ZM45.5849 31.3355C45.5889 31.1828 45.4392 31.1519 45.2518 31.2669C45.0644 31.3819 44.911 31.7372 44.9109 32.0564C44.9102 32.5566 44.9569 32.5661 45.244 32.125C45.4272 31.8435 45.5806 31.4882 45.5849 31.3355ZM24.128 21.6383C23.7108 19.6736 23.1001 17.8113 22.7014 17.2881C22.318 16.785 22.0062 16.1657 22.0085 15.9118C22.0109 15.6579 21.3928 15.1226 20.635 14.7222C18.4871 13.5873 14.7449 9.58952 14.3167 7.97228C14.1182 7.2227 13.4663 6.04529 12.868 5.35582C12.2697 4.66636 11.4588 3.6549 11.0661 3.10814C9.90633 1.49334 9.81225 2.3883 10.9347 4.3578C11.5949 5.51619 11.8511 6.29205 11.6421 6.50001C11.433 6.70796 11.2355 6.56662 11.097 6.10976C10.9729 5.70068 10.2214 5.0913 9.34497 4.68894C8.50088 4.30146 7.28145 3.50541 6.63512 2.91994C5.98879 2.33448 5.38377 1.93125 5.29064 2.02388C5.01067 2.30234 5.54341 2.95492 5.88143 2.74757C6.05377 2.64186 6.12002 2.75585 6.02865 3.00077C5.8199 3.56045 7.83486 5.80538 11.7314 9.35452C15.3435 12.6445 14.8158 12.0534 18.0835 16.4696C20.6206 19.8983 24.6548 25.0719 24.7924 25.0731C24.8282 25.0734 24.5292 23.5278 24.128 21.6383L24.128 21.6383Z"/>
</mask>
<path d="M43.7832 150.602C42.3102 149.244 41.4041 145.199 41.7277 141.424C42.089 137.209 41.5365 134.148 39.285 127.892C35.8157 118.254 35.0651 113.449 35.7818 105.468C36.2845 99.8683 35.8889 96.6832 33.8861 90.2055C32.1456 84.5762 31.8061 82.4305 31.9995 78.2842C32.2492 72.9349 33.5044 70.5885 38.7978 65.5763C39.809 64.6188 41.1439 63.3515 41.7642 62.7602C44.0564 60.575 44.7589 59.1095 44.9587 56.0954C45.1793 52.7687 44.6729 50.1019 43.3653 47.7038C42.8381 46.737 42.4107 45.5209 42.4154 45.0012C42.4299 43.4169 43.2169 44.169 43.9273 46.4459C44.2895 47.6068 44.8984 48.8571 45.2806 49.2244C46.2658 50.1712 48.2044 50.8285 49.2545 50.5717C50.6813 50.2228 52.431 48.472 52.8107 47.0132C53.1059 45.8792 53.0341 45.4604 52.2871 43.9577C51.3816 42.1362 49.5247 40.244 49.056 40.6652C48.9058 40.8002 48.8777 40.7455 48.9933 40.5436C49.1111 40.3381 48.55 39.8475 47.7183 39.4287L46.2328 38.6808L44.515 39.8289C42.2652 41.3326 39.551 41.944 37.7004 41.3639C34.884 40.481 29.5303 34.3554 25.8665 27.8233C25.3857 26.9662 24.722 25.9525 24.3915 25.5707C23.2932 24.3016 19.7959 19.7511 17.2567 16.2871C14.604 12.6682 7.45569 5.82797 6.76762 6.25004C6.54804 6.38473 6.50092 6.31443 6.65009 6.07481C6.79051 5.84933 6.45487 5.09554 5.88114 4.34783C4.715 2.82807 4.07466 1.30543 4.49358 1.04846C4.95724 0.764054 6.78708 1.86263 7.68604 2.96509C8.44856 3.90023 10.1607 4.88957 10.4751 4.57677C10.6954 4.35775 10.2105 3.31418 9.88712 3.31123C9.72068 3.30971 9.58804 2.92233 9.59235 2.45037C9.60368 1.20726 10.3851 1.39237 11.4763 2.89664C11.9932 3.60935 12.8432 4.65322 13.3651 5.21637C13.887 5.77952 14.4675 6.83976 14.6552 7.57246C15.1792 9.61889 19.0647 13.3398 22.4899 15.0754C26.5986 17.1572 27.7298 17.569 29.9886 17.8047C32.3479 18.051 33.6852 17.6951 39.2971 15.3278C44.1959 13.2612 47.4215 12.1727 48.7296 12.1447C50.2829 12.1115 51.8701 13.8163 53.6537 17.4336C55.7459 21.6768 58.3046 29.1046 59.1129 33.2813C59.4972 35.2672 60.0835 37.9758 60.4159 39.3004C62.8052 48.8236 62.5152 53.3458 58.8262 64.0843C57.6814 67.4166 56.9768 70.1259 56.7547 72.0492C56.3835 75.2646 55.8104 78.0237 54.4419 83.1843C52.9058 88.9772 50.4001 97.7093 49.0877 101.844C47.9791 105.336 47.8454 106.132 47.9026 108.9C47.9783 112.562 47.5005 115.899 46.0919 121.546C44.7087 127.09 44.6942 129.775 46.0277 133.376C47.3206 136.868 47.6528 139.15 47.6066 144.224C47.5701 148.236 47.1831 150.68 46.5199 151.086C45.6244 151.636 44.7335 151.478 43.7831 150.602L43.7832 150.602ZM46.2351 149.625C46.4331 149.112 46.7436 147.146 46.9253 145.255C47.3248 141.096 46.9579 137.576 45.7868 134.329C44.3494 130.345 44.019 128.571 43.7232 123.249C43.5657 120.416 43.2257 116.545 42.9677 114.647C42.604 111.972 42.55 108.538 42.7274 99.3694C42.9255 89.133 43.0535 87.0812 43.6793 84.116C44.5612 79.9364 46.24 75.3591 48.626 70.6279C52.2899 63.363 53.8362 57.9836 53.8355 52.5045C53.8352 50.4955 53.7281 48.4647 53.5975 47.9916L53.36 47.1312L53.0841 47.9869C52.162 50.8455 48.6249 52.2171 46.1681 50.6687C45.5613 50.2862 45.0182 49.9729 44.9613 49.9724C44.9043 49.9719 45.0642 51.016 45.3166 52.2927C46.3504 57.5229 45.1965 60.4021 40.2384 64.9634C33.7414 70.9405 32.4859 73.4227 32.6855 79.8965C32.7955 83.462 32.9203 84.0302 34.9155 90.0433L37.029 96.413L36.8609 105.334C36.641 117.009 37.0888 119.69 41.0977 130.702C41.5654 131.987 42.0384 133.883 42.1487 134.917C42.2821 136.165 42.5042 136.797 42.811 136.8C43.1237 136.803 43.2686 137.247 43.2601 138.177C43.2533 138.932 43.1164 139.549 42.956 139.547C42.4614 139.543 42.2037 142.951 42.5576 144.816C43.1693 148.039 43.8252 149.744 44.6032 150.133C45.7095 150.687 45.8414 150.646 46.2351 149.625L46.2351 149.625ZM46.1349 118.98C46.6054 117.166 46.9805 114.407 47.1301 111.66L47.3702 107.25L46.4802 108.135C45.2086 109.4 43.9641 109.301 43.3343 107.884C42.8629 106.824 42.8455 106.939 43.0097 110.01C43.1051 111.795 43.3886 114.955 43.6398 117.031C43.8909 119.107 44.0856 121.987 44.0724 123.431C44.0593 124.874 44.1567 126.167 44.2891 126.304C44.4215 126.44 44.721 125.503 44.9548 124.221C45.1886 122.94 45.7196 120.581 46.1349 118.98V118.98ZM45.4151 108.413C46.076 107.957 46.9381 106.486 46.9443 105.803C46.952 104.957 45.681 103.529 44.9142 103.522C43.5575 103.51 43.0767 105.542 43.9215 107.718C44.2902 108.668 44.7414 108.878 45.4151 108.413V108.413ZM49.836 97.7312C54.2293 82.6008 55.6504 76.7306 56.0547 72.0428C56.383 68.2379 56.4291 68.0508 58.164 63.4803C60.1782 58.1738 61.087 53.8505 61.1528 49.2619C61.2039 45.6936 61.0682 44.5456 60.1377 40.6709C59.547 38.2112 58.8463 34.9874 58.5806 33.507C58.3149 32.0267 57.4187 28.7746 56.5891 26.2802C53.9931 18.4752 50.6988 12.6084 48.9031 12.592C48.011 12.5839 45.6425 13.4072 38.9286 16.0594C33.8046 18.0834 33.0723 18.2832 30.8515 18.263C28.665 18.2431 27.0774 17.8555 24.2892 16.661C22.9764 16.0986 23.7818 17.7357 25.5602 19.2445C29.1883 22.3227 30.2771 22.3723 39.6888 19.8883C43.4918 18.8846 47.0651 18.0676 47.6296 18.0727C49.5806 18.0905 50.1567 19.4147 52.053 28.2395C53.5004 34.9755 54.0704 39.6631 53.9265 43.6462C53.8708 45.1877 54.01 47.8188 54.2358 49.4931C54.7478 53.2891 54.2722 57.4112 52.8057 61.8867C52.101 64.0375 51.8988 65.0973 52.1358 65.3991C52.4734 65.8291 51.8093 67.0772 51.4437 66.7C51.1896 66.4379 47.0796 74.6077 46.0278 77.4656C44.0506 82.8379 43.6526 85.4713 43.4018 94.8406C43.2742 99.6066 43.2633 103.507 43.3777 103.508C43.4921 103.509 43.8921 103.32 44.2668 103.088C44.8228 102.743 45.1175 102.763 45.8709 103.196C46.3785 103.488 46.9394 104.068 47.1175 104.485C47.5611 105.523 47.6059 105.412 49.8361 97.7312L49.836 97.7312ZM52.8483 35.1717C52.0091 29.875 50.5788 23.398 49.721 21.0096C48.9078 18.7456 48.3458 18.4093 46.0196 18.7948C43.1904 19.2637 43.0051 19.3896 44.3038 19.9609C44.9347 20.2384 45.8079 20.8629 46.2443 21.3486C47.2274 22.4429 48.3652 24.7102 48.3435 25.5317C48.334 25.8695 47.9738 25.3977 47.5417 24.4832C46.1386 21.5135 44.3731 20.0967 42.0664 20.0892C40.0989 20.0828 36.235 22.0215 36.6918 22.7859C36.7774 22.9289 36.6044 23.0225 36.3077 22.9939C35.5123 22.9173 34.4637 25.0909 34.4477 26.8496C34.4315 28.6169 35.5303 31.2287 36.413 31.5214C36.7459 31.6318 37.2861 32.339 37.6136 33.0929C37.941 33.8469 38.4356 34.4658 38.7126 34.4683C38.9896 34.4708 39.8833 35.1072 40.6985 35.8824C41.5137 36.6576 42.3643 37.2341 42.5886 37.1635C43.3636 36.9196 44.8553 33.7464 44.6667 32.743C44.457 31.6277 44.8025 30.0614 45.2573 30.0655C45.9019 30.0714 46.2804 31.3691 45.9143 32.318C45.6032 33.1244 45.7014 33.3933 46.7408 34.5803C48.0918 36.1231 48.0878 36.1054 47.386 37.4386C46.8648 38.4287 47.0934 38.986 48.031 39.0105C48.7779 39.0301 52.0191 41.9602 52.5317 43.0794L53.0967 44.3131L53.2223 41.3192C53.2913 39.6726 53.123 36.9062 52.8482 35.1717L52.8483 35.1717ZM43.4552 39.8125C44.4052 39.3 45.1836 38.7508 45.185 38.592C45.1877 38.2913 44.8891 38.246 42.2238 38.1429C40.2966 38.0684 36.7354 35.9783 30.745 31.4059C28.6528 29.8089 27.0928 28.7961 27.2784 29.1552C28.8461 32.189 34.7874 39.2493 36.6676 40.3127C38.3494 41.2639 41.1469 41.0577 43.4552 39.8125V39.8125ZM41.4844 37.3076C41.03 36.9829 40.2094 36.2957 39.6611 35.7803C39.1128 35.265 38.5425 34.918 38.394 35.0091C38.2454 35.1002 37.7622 34.5865 37.3203 33.8676C36.8784 33.1486 36.1734 32.2482 35.7536 31.8668C34.0531 30.3218 33.2866 26.8395 34.1496 24.5801C34.352 24.0504 35.0857 23.0203 35.7802 22.2909C36.4748 21.5615 36.8532 21.0709 36.6213 21.2007C35.9001 21.6042 32.4694 22.397 31.4833 22.388C29.687 22.3716 26.9525 21.2737 25.7297 20.0779C24.2658 18.6463 23.9352 18.5928 24.2159 19.833C25.1698 24.0484 25.719 26.0041 26.1317 26.6551C27.1709 28.2942 36.9489 35.5233 40.199 37.0554C42.3011 38.0464 42.6011 38.1052 41.4844 37.3076V37.3076ZM46.7388 37.1401C47.2401 36.3805 47.2403 36.2391 46.7414 35.4526C45.8439 34.037 45.3438 34.0929 44.3849 35.7158C43.3373 37.4891 43.3348 37.5058 44.0913 37.7134C45.4842 38.0958 46.2119 37.9381 46.7385 37.1401L46.7388 37.1401ZM45.5849 31.3355C45.5889 31.1828 45.4392 31.1519 45.2518 31.2669C45.0644 31.3819 44.911 31.7372 44.9109 32.0564C44.9102 32.5566 44.9569 32.5661 45.244 32.125C45.4272 31.8435 45.5806 31.4882 45.5849 31.3355ZM24.128 21.6383C23.7108 19.6736 23.1001 17.8113 22.7014 17.2881C22.318 16.785 22.0062 16.1657 22.0085 15.9118C22.0109 15.6579 21.3928 15.1226 20.635 14.7222C18.4871 13.5873 14.7449 9.58952 14.3167 7.97228C14.1182 7.2227 13.4663 6.04529 12.868 5.35582C12.2697 4.66636 11.4588 3.6549 11.0661 3.10814C9.90633 1.49334 9.81225 2.3883 10.9347 4.3578C11.5949 5.51619 11.8511 6.29205 11.6421 6.50001C11.433 6.70796 11.2355 6.56662 11.097 6.10976C10.9729 5.70068 10.2214 5.0913 9.34497 4.68894C8.50088 4.30146 7.28145 3.50541 6.63512 2.91994C5.98879 2.33448 5.38377 1.93125 5.29064 2.02388C5.01067 2.30234 5.54341 2.95492 5.88143 2.74757C6.05377 2.64186 6.12002 2.75585 6.02865 3.00077C5.8199 3.56045 7.83486 5.80538 11.7314 9.35452C15.3435 12.6445 14.8158 12.0534 18.0835 16.4696C20.6206 19.8983 24.6548 25.0719 24.7924 25.0731C24.8282 25.0734 24.5292 23.5278 24.128 21.6383L24.128 21.6383Z" fill="white"/>
<path d="M43.7832 150.602C42.3102 149.244 41.4041 145.199 41.7277 141.424C42.089 137.209 41.5365 134.148 39.285 127.892C35.8157 118.254 35.0651 113.449 35.7818 105.468C36.2845 99.8683 35.8889 96.6832 33.8861 90.2055C32.1456 84.5762 31.8061 82.4305 31.9995 78.2842C32.2492 72.9349 33.5044 70.5885 38.7978 65.5763C39.809 64.6188 41.1439 63.3515 41.7642 62.7602C44.0564 60.575 44.7589 59.1095 44.9587 56.0954C45.1793 52.7687 44.6729 50.1019 43.3653 47.7038C42.8381 46.737 42.4107 45.5209 42.4154 45.0012C42.4299 43.4169 43.2169 44.169 43.9273 46.4459C44.2895 47.6068 44.8984 48.8571 45.2806 49.2244C46.2658 50.1712 48.2044 50.8285 49.2545 50.5717C50.6813 50.2228 52.431 48.472 52.8107 47.0132C53.1059 45.8792 53.0341 45.4604 52.2871 43.9577C51.3816 42.1362 49.5247 40.244 49.056 40.6652C48.9058 40.8002 48.8777 40.7455 48.9933 40.5436C49.1111 40.3381 48.55 39.8475 47.7183 39.4287L46.2328 38.6808L44.515 39.8289C42.2652 41.3326 39.551 41.944 37.7004 41.3639C34.884 40.481 29.5303 34.3554 25.8665 27.8233C25.3857 26.9662 24.722 25.9525 24.3915 25.5707C23.2932 24.3016 19.7959 19.7511 17.2567 16.2871C14.604 12.6682 7.45569 5.82797 6.76762 6.25004C6.54804 6.38473 6.50092 6.31443 6.65009 6.07481C6.79051 5.84933 6.45487 5.09554 5.88114 4.34783C4.715 2.82807 4.07466 1.30543 4.49358 1.04846C4.95724 0.764054 6.78708 1.86263 7.68604 2.96509C8.44856 3.90023 10.1607 4.88957 10.4751 4.57677C10.6954 4.35775 10.2105 3.31418 9.88712 3.31123C9.72068 3.30971 9.58804 2.92233 9.59235 2.45037C9.60368 1.20726 10.3851 1.39237 11.4763 2.89664C11.9932 3.60935 12.8432 4.65322 13.3651 5.21637C13.887 5.77952 14.4675 6.83976 14.6552 7.57246C15.1792 9.61889 19.0647 13.3398 22.4899 15.0754C26.5986 17.1572 27.7298 17.569 29.9886 17.8047C32.3479 18.051 33.6852 17.6951 39.2971 15.3278C44.1959 13.2612 47.4215 12.1727 48.7296 12.1447C50.2829 12.1115 51.8701 13.8163 53.6537 17.4336C55.7459 21.6768 58.3046 29.1046 59.1129 33.2813C59.4972 35.2672 60.0835 37.9758 60.4159 39.3004C62.8052 48.8236 62.5152 53.3458 58.8262 64.0843C57.6814 67.4166 56.9768 70.1259 56.7547 72.0492C56.3835 75.2646 55.8104 78.0237 54.4419 83.1843C52.9058 88.9772 50.4001 97.7093 49.0877 101.844C47.9791 105.336 47.8454 106.132 47.9026 108.9C47.9783 112.562 47.5005 115.899 46.0919 121.546C44.7087 127.09 44.6942 129.775 46.0277 133.376C47.3206 136.868 47.6528 139.15 47.6066 144.224C47.5701 148.236 47.1831 150.68 46.5199 151.086C45.6244 151.636 44.7335 151.478 43.7831 150.602L43.7832 150.602ZM46.2351 149.625C46.4331 149.112 46.7436 147.146 46.9253 145.255C47.3248 141.096 46.9579 137.576 45.7868 134.329C44.3494 130.345 44.019 128.571 43.7232 123.249C43.5657 120.416 43.2257 116.545 42.9677 114.647C42.604 111.972 42.55 108.538 42.7274 99.3694C42.9255 89.133 43.0535 87.0812 43.6793 84.116C44.5612 79.9364 46.24 75.3591 48.626 70.6279C52.2899 63.363 53.8362 57.9836 53.8355 52.5045C53.8352 50.4955 53.7281 48.4647 53.5975 47.9916L53.36 47.1312L53.0841 47.9869C52.162 50.8455 48.6249 52.2171 46.1681 50.6687C45.5613 50.2862 45.0182 49.9729 44.9613 49.9724C44.9043 49.9719 45.0642 51.016 45.3166 52.2927C46.3504 57.5229 45.1965 60.4021 40.2384 64.9634C33.7414 70.9405 32.4859 73.4227 32.6855 79.8965C32.7955 83.462 32.9203 84.0302 34.9155 90.0433L37.029 96.413L36.8609 105.334C36.641 117.009 37.0888 119.69 41.0977 130.702C41.5654 131.987 42.0384 133.883 42.1487 134.917C42.2821 136.165 42.5042 136.797 42.811 136.8C43.1237 136.803 43.2686 137.247 43.2601 138.177C43.2533 138.932 43.1164 139.549 42.956 139.547C42.4614 139.543 42.2037 142.951 42.5576 144.816C43.1693 148.039 43.8252 149.744 44.6032 150.133C45.7095 150.687 45.8414 150.646 46.2351 149.625L46.2351 149.625ZM46.1349 118.98C46.6054 117.166 46.9805 114.407 47.1301 111.66L47.3702 107.25L46.4802 108.135C45.2086 109.4 43.9641 109.301 43.3343 107.884C42.8629 106.824 42.8455 106.939 43.0097 110.01C43.1051 111.795 43.3886 114.955 43.6398 117.031C43.8909 119.107 44.0856 121.987 44.0724 123.431C44.0593 124.874 44.1567 126.167 44.2891 126.304C44.4215 126.44 44.721 125.503 44.9548 124.221C45.1886 122.94 45.7196 120.581 46.1349 118.98V118.98ZM45.4151 108.413C46.076 107.957 46.9381 106.486 46.9443 105.803C46.952 104.957 45.681 103.529 44.9142 103.522C43.5575 103.51 43.0767 105.542 43.9215 107.718C44.2902 108.668 44.7414 108.878 45.4151 108.413V108.413ZM49.836 97.7312C54.2293 82.6008 55.6504 76.7306 56.0547 72.0428C56.383 68.2379 56.4291 68.0508 58.164 63.4803C60.1782 58.1738 61.087 53.8505 61.1528 49.2619C61.2039 45.6936 61.0682 44.5456 60.1377 40.6709C59.547 38.2112 58.8463 34.9874 58.5806 33.507C58.3149 32.0267 57.4187 28.7746 56.5891 26.2802C53.9931 18.4752 50.6988 12.6084 48.9031 12.592C48.011 12.5839 45.6425 13.4072 38.9286 16.0594C33.8046 18.0834 33.0723 18.2832 30.8515 18.263C28.665 18.2431 27.0774 17.8555 24.2892 16.661C22.9764 16.0986 23.7818 17.7357 25.5602 19.2445C29.1883 22.3227 30.2771 22.3723 39.6888 19.8883C43.4918 18.8846 47.0651 18.0676 47.6296 18.0727C49.5806 18.0905 50.1567 19.4147 52.053 28.2395C53.5004 34.9755 54.0704 39.6631 53.9265 43.6462C53.8708 45.1877 54.01 47.8188 54.2358 49.4931C54.7478 53.2891 54.2722 57.4112 52.8057 61.8867C52.101 64.0375 51.8988 65.0973 52.1358 65.3991C52.4734 65.8291 51.8093 67.0772 51.4437 66.7C51.1896 66.4379 47.0796 74.6077 46.0278 77.4656C44.0506 82.8379 43.6526 85.4713 43.4018 94.8406C43.2742 99.6066 43.2633 103.507 43.3777 103.508C43.4921 103.509 43.8921 103.32 44.2668 103.088C44.8228 102.743 45.1175 102.763 45.8709 103.196C46.3785 103.488 46.9394 104.068 47.1175 104.485C47.5611 105.523 47.6059 105.412 49.8361 97.7312L49.836 97.7312ZM52.8483 35.1717C52.0091 29.875 50.5788 23.398 49.721 21.0096C48.9078 18.7456 48.3458 18.4093 46.0196 18.7948C43.1904 19.2637 43.0051 19.3896 44.3038 19.9609C44.9347 20.2384 45.8079 20.8629 46.2443 21.3486C47.2274 22.4429 48.3652 24.7102 48.3435 25.5317C48.334 25.8695 47.9738 25.3977 47.5417 24.4832C46.1386 21.5135 44.3731 20.0967 42.0664 20.0892C40.0989 20.0828 36.235 22.0215 36.6918 22.7859C36.7774 22.9289 36.6044 23.0225 36.3077 22.9939C35.5123 22.9173 34.4637 25.0909 34.4477 26.8496C34.4315 28.6169 35.5303 31.2287 36.413 31.5214C36.7459 31.6318 37.2861 32.339 37.6136 33.0929C37.941 33.8469 38.4356 34.4658 38.7126 34.4683C38.9896 34.4708 39.8833 35.1072 40.6985 35.8824C41.5137 36.6576 42.3643 37.2341 42.5886 37.1635C43.3636 36.9196 44.8553 33.7464 44.6667 32.743C44.457 31.6277 44.8025 30.0614 45.2573 30.0655C45.9019 30.0714 46.2804 31.3691 45.9143 32.318C45.6032 33.1244 45.7014 33.3933 46.7408 34.5803C48.0918 36.1231 48.0878 36.1054 47.386 37.4386C46.8648 38.4287 47.0934 38.986 48.031 39.0105C48.7779 39.0301 52.0191 41.9602 52.5317 43.0794L53.0967 44.3131L53.2223 41.3192C53.2913 39.6726 53.123 36.9062 52.8482 35.1717L52.8483 35.1717ZM43.4552 39.8125C44.4052 39.3 45.1836 38.7508 45.185 38.592C45.1877 38.2913 44.8891 38.246 42.2238 38.1429C40.2966 38.0684 36.7354 35.9783 30.745 31.4059C28.6528 29.8089 27.0928 28.7961 27.2784 29.1552C28.8461 32.189 34.7874 39.2493 36.6676 40.3127C38.3494 41.2639 41.1469 41.0577 43.4552 39.8125V39.8125ZM41.4844 37.3076C41.03 36.9829 40.2094 36.2957 39.6611 35.7803C39.1128 35.265 38.5425 34.918 38.394 35.0091C38.2454 35.1002 37.7622 34.5865 37.3203 33.8676C36.8784 33.1486 36.1734 32.2482 35.7536 31.8668C34.0531 30.3218 33.2866 26.8395 34.1496 24.5801C34.352 24.0504 35.0857 23.0203 35.7802 22.2909C36.4748 21.5615 36.8532 21.0709 36.6213 21.2007C35.9001 21.6042 32.4694 22.397 31.4833 22.388C29.687 22.3716 26.9525 21.2737 25.7297 20.0779C24.2658 18.6463 23.9352 18.5928 24.2159 19.833C25.1698 24.0484 25.719 26.0041 26.1317 26.6551C27.1709 28.2942 36.9489 35.5233 40.199 37.0554C42.3011 38.0464 42.6011 38.1052 41.4844 37.3076V37.3076ZM46.7388 37.1401C47.2401 36.3805 47.2403 36.2391 46.7414 35.4526C45.8439 34.037 45.3438 34.0929 44.3849 35.7158C43.3373 37.4891 43.3348 37.5058 44.0913 37.7134C45.4842 38.0958 46.2119 37.9381 46.7385 37.1401L46.7388 37.1401ZM45.5849 31.3355C45.5889 31.1828 45.4392 31.1519 45.2518 31.2669C45.0644 31.3819 44.911 31.7372 44.9109 32.0564C44.9102 32.5566 44.9569 32.5661 45.244 32.125C45.4272 31.8435 45.5806 31.4882 45.5849 31.3355ZM24.128 21.6383C23.7108 19.6736 23.1001 17.8113 22.7014 17.2881C22.318 16.785 22.0062 16.1657 22.0085 15.9118C22.0109 15.6579 21.3928 15.1226 20.635 14.7222C18.4871 13.5873 14.7449 9.58952 14.3167 7.97228C14.1182 7.2227 13.4663 6.04529 12.868 5.35582C12.2697 4.66636 11.4588 3.6549 11.0661 3.10814C9.90633 1.49334 9.81225 2.3883 10.9347 4.3578C11.5949 5.51619 11.8511 6.29205 11.6421 6.50001C11.433 6.70796 11.2355 6.56662 11.097 6.10976C10.9729 5.70068 10.2214 5.0913 9.34497 4.68894C8.50088 4.30146 7.28145 3.50541 6.63512 2.91994C5.98879 2.33448 5.38377 1.93125 5.29064 2.02388C5.01067 2.30234 5.54341 2.95492 5.88143 2.74757C6.05377 2.64186 6.12002 2.75585 6.02865 3.00077C5.8199 3.56045 7.83486 5.80538 11.7314 9.35452C15.3435 12.6445 14.8158 12.0534 18.0835 16.4696C20.6206 19.8983 24.6548 25.0719 24.7924 25.0731C24.8282 25.0734 24.5292 23.5278 24.128 21.6383L24.128 21.6383Z" stroke="white" stroke-width="0.05" mask="url(#path-1-outside-1)"/>
</g>
<defs>
<filter id="filter0_d" x="0.339874" y="0.977966" width="65.6404" height="158.453" filterUnits="userSpaceOnUse" color-interpolation-filters="sRGB">
<feFlood flood-opacity="0" result="BackgroundImageFix"/>
<feColorMatrix in="SourceAlpha" type="matrix" values="0 0 0 0 0 0 0 0 0 0 0 0 0 0 0 0 0 0 127 0" result="hardAlpha"/>
<feOffset dy="4"/>
<feGaussianBlur stdDeviation="2"/>
<feComposite in2="hardAlpha" operator="out"/>
<feColorMatrix type="matrix" values="0 0 0 0 0 0 0 0 0 0 0 0 0 0 0 0 0 0 0.25 0"/>
<feBlend mode="normal" in2="BackgroundImageFix" result="effect1_dropShadow"/>
<feBlend mode="normal" in="SourceGraphic" in2="effect1_dropShadow" result="shape"/>
</filter>
</defs>
</svg>
